<svg width="30" height="30" viewBox="0 0 30 30" fill="none" xmlns="http://www.w3.org/2000/svg">
<path d="M24.875 29.375C24.6787 29.375 24.485 29.3125 24.3225 29.195L15 22.41L5.6775 29.1975C5.3925 29.4025 5.015 29.435 4.7 29.2725C4.3875 29.1137 4.1875 28.7912 4.1875 28.4387V7C4.1875 5.45 5.45 4.1875 7 4.1875H22.9975C24.5475 4.1875 25.81 5.45 25.81 7V28.4375C25.81 28.79 25.6125 29.1125 25.2975 29.2725C25.165 29.3412 25.0188 29.375 24.8725 29.375H24.875ZM15 20.3125C15.1937 20.3125 15.3875 20.3725 15.55 20.4925L23.9375 26.5963V7C23.9375 6.485 23.5162 6.0625 23 6.0625H7C6.48375 6.0625 6.0625 6.485 6.0625 7V26.5963L14.45 20.4925C14.6125 20.3725 14.8062 20.3125 15 20.3125Z" fill="#0F1419"/>
</svg>
