<svg width="33" height="33" viewBox="0 0 33 33" fill="none" xmlns="http://www.w3.org/2000/svg">
<path d="M22.6875 14.0938C21.3606 14.0938 20.2812 15.1759 20.2812 16.5C20.2812 17.8241 21.3593 18.9062 22.6875 18.9062C24.013 18.9062 25.0938 17.8255 25.0938 16.5C25.0938 15.1745 24.013 14.0938 22.6875 14.0938ZM22.6875 17.5312C22.1182 17.5312 21.6562 17.0693 21.6562 16.5C21.6562 15.9321 22.1196 15.4688 22.6875 15.4688C23.2554 15.4688 23.7188 15.9308 23.7188 16.5C23.7188 17.0679 23.2568 17.5312 22.6875 17.5312ZM16.5 14.0938C15.1718 14.0938 14.0938 15.1759 14.0938 16.5C14.0938 17.8241 15.1731 18.9062 16.5 18.9062C17.8269 18.9062 18.9062 17.8255 18.9062 16.5C18.9062 15.1745 17.8282 14.0938 16.5 14.0938ZM16.5 17.5312C15.9307 17.5312 15.4688 17.0693 15.4688 16.5C15.4688 15.9321 15.9321 15.4688 16.5 15.4688C17.0679 15.4688 17.5312 15.9308 17.5312 16.5C17.5312 17.0679 17.0693 17.5312 16.5 17.5312ZM10.3125 14.0938C8.98563 14.0938 7.90625 15.1759 7.90625 16.5C7.90625 17.8241 8.98563 18.9062 10.3125 18.9062C11.638 18.9062 12.7188 17.8255 12.7188 16.5C12.7188 15.1745 11.6366 14.0938 10.3125 14.0938ZM10.3125 17.5312C9.74325 17.5312 9.28125 17.0693 9.28125 16.5C9.28125 15.9321 9.74462 15.4688 10.3125 15.4688C10.8804 15.4688 11.3438 15.9308 11.3438 16.5C11.3438 17.0679 10.8818 17.5312 10.3125 17.5312Z" fill="#0F1419"/>
</svg>
