<svg width="26" height="26" viewBox="0 0 26 26" fill="none" xmlns="http://www.w3.org/2000/svg">
<path d="M24.25 7.17124H19.3375L19.8025 1.83124C19.8475 1.31624 19.465 0.862493 18.95 0.816243C18.4288 0.778743 17.98 1.15374 17.935 1.66999L17.4562 7.16999H9.55625L10.0187 1.83249C10.065 1.31624 9.68125 0.862493 9.16875 0.816243C8.64375 0.778743 8.1975 1.15374 8.1525 1.66999L7.675 7.16999H2.7275C2.21 7.16999 1.79 7.59124 1.79 8.10749C1.79 8.62374 2.21 9.04499 2.7275 9.04499H7.5125L6.825 16.9537H1.75C1.2325 16.9537 0.8125 17.3737 0.8125 17.8912C0.8125 18.4087 1.2325 18.8287 1.75 18.8287H6.6625L6.1975 24.1687C6.1525 24.6837 6.535 25.1375 7.05 25.1837L7.1325 25.1875C7.61375 25.1875 8.0225 24.8187 8.065 24.33L8.54375 18.83H16.4438L15.9813 24.1675C15.9363 24.6837 16.3188 25.1375 16.8337 25.1837L16.9163 25.1875C17.3975 25.1875 17.8062 24.8187 17.8487 24.33L18.3263 18.83H23.2725C23.7887 18.83 24.21 18.4087 24.21 17.8925C24.21 17.3762 23.7887 16.955 23.2725 16.955H18.4875L19.175 9.04624H24.25C24.7675 9.04624 25.1875 8.62624 25.1875 8.10874C25.1875 7.59124 24.7675 7.17124 24.25 7.17124ZM16.6063 16.9537H8.70625L9.39375 9.04624H17.2938L16.6063 16.9537Z" fill="#0F1419"/>
</svg>
