<svg width="28" height="26" viewBox="0 0 28 26" fill="none" xmlns="http://www.w3.org/2000/svg">
<path d="M27.225 7.18744L14.5938 0.371191C14.2225 0.171191 13.7763 0.171191 13.4063 0.371191L0.781258 7.18744C0.173758 7.51744 -0.0524924 8.27494 0.275008 8.88244C0.500008 9.30119 0.931258 9.53869 1.37501 9.53869C1.57501 9.53869 1.78001 9.49119 1.96876 9.38869L2.88626 8.89369L4.87376 22.9562C5.14376 24.4737 6.51126 25.5337 8.19876 25.5337H19.8013C21.4888 25.5337 22.8563 24.4737 23.1288 22.9237L25.1138 8.89244L26.035 9.38994C26.6413 9.71869 27.4 9.49244 27.7275 8.88494C28.0563 8.27744 27.8275 7.51869 27.2225 7.19119L27.225 7.18744ZM14 17.2937C11.7563 17.2937 9.93751 15.4749 9.93751 13.2312C9.93751 10.9874 11.7563 9.16869 14 9.16869C16.2438 9.16869 18.0625 10.9874 18.0625 13.2312C18.0625 15.4749 16.2438 17.2937 14 17.2937Z" fill="#1DA1F2"/>
</svg>
