<svg width="30" height="30" viewBox="0 0 30 30" fill="none" xmlns="http://www.w3.org/2000/svg">
<path d="M29.5537 6.17125C28.51 6.63375 27.3888 6.94625 26.21 7.0875C27.4125 6.3675 28.335 5.225 28.77 3.865C27.645 4.5325 26.3988 5.0175 25.0725 5.2775C24.01 4.1475 22.4975 3.44 20.8225 3.44C17.6075 3.44 15 6.0475 15 9.265C15 9.72 15.0525 10.1625 15.15 10.59C10.3087 10.3463 6.02 8.0275 3.1475 4.505C2.6475 5.3675 2.36 6.3675 2.36 7.4325C2.36 9.4525 3.38875 11.2363 4.95 12.28C3.995 12.2488 3.0975 11.9875 2.3125 11.5513V11.6263C2.3125 14.4475 4.31875 16.8013 6.98375 17.3363C6.49375 17.4688 5.98 17.5388 5.45 17.5388C5.075 17.5388 4.70875 17.5038 4.35375 17.4363C5.095 19.7488 7.245 21.4338 9.79375 21.4788C7.8 23.0413 5.28875 23.9725 2.56125 23.9725C2.09125 23.9725 1.6275 23.945 1.17125 23.8913C3.74875 25.545 6.80875 26.5075 10.0962 26.5075C20.8087 26.5075 26.665 17.635 26.665 9.94C26.665 9.69 26.6588 9.4375 26.6475 9.1875C27.785 8.365 28.7725 7.34125 29.5513 6.175L29.5537 6.17125Z" fill="#1DA1F2"/>
</svg>
