<svg width="30" height="30" viewBox="0 0 30 30" fill="none" xmlns="http://www.w3.org/2000/svg">
<path d="M20.625 12.8125C19.4187 12.8125 18.4375 13.7962 18.4375 15C18.4375 16.2037 19.4175 17.1875 20.625 17.1875C21.83 17.1875 22.8125 16.205 22.8125 15C22.8125 13.795 21.83 12.8125 20.625 12.8125ZM20.625 15.9375C20.1075 15.9375 19.6875 15.5175 19.6875 15C19.6875 14.4837 20.1088 14.0625 20.625 14.0625C21.1412 14.0625 21.5625 14.4825 21.5625 15C21.5625 15.5162 21.1425 15.9375 20.625 15.9375ZM15 12.8125C13.7925 12.8125 12.8125 13.7962 12.8125 15C12.8125 16.2037 13.7937 17.1875 15 17.1875C16.2063 17.1875 17.1875 16.205 17.1875 15C17.1875 13.795 16.2075 12.8125 15 12.8125ZM15 15.9375C14.4825 15.9375 14.0625 15.5175 14.0625 15C14.0625 14.4837 14.4837 14.0625 15 14.0625C15.5162 14.0625 15.9375 14.4825 15.9375 15C15.9375 15.5162 15.5175 15.9375 15 15.9375ZM9.375 12.8125C8.16875 12.8125 7.1875 13.7962 7.1875 15C7.1875 16.2037 8.16875 17.1875 9.375 17.1875C10.58 17.1875 11.5625 16.205 11.5625 15C11.5625 13.795 10.5787 12.8125 9.375 12.8125ZM9.375 15.9375C8.8575 15.9375 8.4375 15.5175 8.4375 15C8.4375 14.4837 8.85875 14.0625 9.375 14.0625C9.89125 14.0625 10.3125 14.4825 10.3125 15C10.3125 15.5162 9.8925 15.9375 9.375 15.9375Z" fill="#0F1419"/>
<path d="M15 28.4375C7.59 28.4375 1.5625 22.41 1.5625 15C1.5625 7.59 7.59 1.5625 15 1.5625C22.41 1.5625 28.4375 7.59 28.4375 15C28.4375 22.41 22.41 28.4375 15 28.4375ZM15 3.4375C8.625 3.4375 3.4375 8.625 3.4375 15C3.4375 21.375 8.625 26.5625 15 26.5625C21.375 26.5625 26.5625 21.375 26.5625 15C26.5625 8.625 21.375 3.4375 15 3.4375Z" fill="#0F1419"/>
</svg>
