<svg width="30" height="30" viewBox="0 0 30 30" fill="none" xmlns="http://www.w3.org/2000/svg">
<path d="M15 14.77C16.6938 14.77 18.59 14.5825 19.8 13.2C20.8175 12.0375 21.1475 10.24 20.8075 7.71001C20.3325 4.17876 18.1613 2.07001 15 2.07001C11.8388 2.07001 9.6675 4.17876 9.1925 7.71251C8.8525 10.24 9.1825 12.0375 10.2 13.2C11.41 14.5838 13.3063 14.77 15 14.77ZM11.05 7.96001C11.2525 6.46001 12.0338 3.94501 15 3.94501C17.9663 3.94501 18.7475 6.46126 18.95 7.96001C19.2088 9.89751 19.0213 11.2438 18.3875 11.9663C17.8188 12.6163 16.805 12.895 15 12.895C13.195 12.895 12.1813 12.6163 11.6125 11.9663C10.9788 11.2438 10.7913 9.89626 11.05 7.96001ZM25.35 24.045C24.2538 19.6375 19.9975 16.5575 15 16.5575C10.0025 16.5575 5.74625 19.6375 4.65 24.045C4.435 24.91 4.615 25.795 5.14375 26.47C5.65375 27.12 6.44375 27.495 7.31 27.495H22.69C23.5563 27.495 24.3463 27.12 24.8563 26.47C25.3863 25.795 25.565 24.9113 25.3488 24.045H25.35ZM23.38 25.315C23.2225 25.515 22.985 25.6225 22.69 25.6225H7.31C7.01625 25.6225 6.7775 25.5163 6.62 25.315C6.44875 25.0975 6.395 24.8 6.47 24.4975C7.3575 20.9288 10.8663 18.435 15 18.435C19.1338 18.435 22.6425 20.9275 23.53 24.4975C23.605 24.8 23.5513 25.0975 23.38 25.315Z" fill="#0F1419"/>
</svg>
